<?xml version="1.0" encoding="UTF-8" standalone="no" ?>
<!DOCTYPE svg PUBLIC "-//W3C//DTD SVG 1.1//EN" "http://www.w3.org/Graphics/SVG/1.1/DTD/svg11.dtd">
<svg xmlns="http://www.w3.org/2000/svg" xmlns:xlink="http://www.w3.org/1999/xlink" version="1.1" width="706" height="145" viewBox="0 0 706 145" xml:space="preserve">
<rect x="0" y="0" width="100%" height="100%" fill="transparent"></rect>
<g transform="matrix(1 0 0 1 353 72.5)" id="bb4db37d-50a8-42b9-b36c-f09e4c0aa151"  >
<rect style="stroke: none; stroke-width: 1; stroke-dasharray: none; stroke-linecap: butt; stroke-dashoffset: 0; stroke-linejoin: miter; stroke-miterlimit: 4; fill: transparent; fill-rule: nonzero; opacity: 1; visibility: hidden;" vector-effect="non-scaling-stroke"  x="-353" y="-72.5" rx="0" ry="0" width="706" height="145" />
</g>
<g transform="matrix(Infinity NaN NaN Infinity 0 0)" id="5d8960bd-81d1-4ddd-88ef-25a560bdb029"  >
</g>
<g transform="matrix(0.52 0 0 0.52 353 72.5)"  >
<g style="" vector-effect="non-scaling-stroke"   >
		<g transform="matrix(0.13 0 0 -0.13 -308.85 0)"  >
<path style="stroke: none; stroke-width: 1; stroke-dasharray: none; stroke-linecap: butt; stroke-dashoffset: 0; stroke-linejoin: miter; stroke-miterlimit: 4; fill: #f9d71c; fill-rule: nonzero; opacity: 1;" vector-effect="non-scaling-stroke"  transform=" translate(-3670, -6000)" d="M 3660 6000 C 3660 5427 3663 5130 3670 5130 C 3677 5130 3680 5427 3680 6000 C 3680 6573 3677 6870 3670 6870 C 3663 6870 3660 6573 3660 6000 z" stroke-linecap="round" />
</g>
		<g transform="matrix(0.13 0 0 -0.13 -176.18 1.4)"  >
<path style="stroke: none; stroke-width: 1; stroke-dasharray: none; stroke-linecap: butt; stroke-dashoffset: 0; stroke-linejoin: miter; stroke-miterlimit: 4; fill: #f9d71c; fill-rule: nonzero; opacity: 1;" vector-effect="non-scaling-stroke"  transform=" translate(-4665, -5989.5)" d="M 4342 5993 L 4345 5515 L 4473 5512 L 4600 5509 L 4600 5690 L 4600 5870 L 4760 5870 L 4920 5870 L 4920 5975 L 4920 6080 L 4760 6080 L 4600 6080 L 4600 6160 L 4600 6240 L 4795 6240 L 4990 6240 L 4990 6355 L 4990 6470 L 4665 6470 L 4340 6470 L 4342 5993 z" stroke-linecap="round" />
</g>
		<g transform="matrix(0.13 0 0 -0.13 211.28 0.67)"  >
<path style="stroke: none; stroke-width: 1; stroke-dasharray: none; stroke-linecap: butt; stroke-dashoffset: 0; stroke-linejoin: miter; stroke-miterlimit: 4; fill: #f9d71c; fill-rule: nonzero; opacity: 1;" vector-effect="non-scaling-stroke"  transform=" translate(-7571, -5995)" d="M 7150 5995 L 7150 5520 L 7378 5520 C 7671 5520 7739 5537 7850 5637 C 7948 5725 7992 5836 7992 5995 C 7992 6236 7872 6398 7653 6455 C 7611 6466 7538 6470 7373 6470 L 7150 6470 L 7150 5995 z M 7617 6221 C 7725 6166 7768 6000 7708 5868 C 7666 5778 7599 5740 7479 5740 L 7410 5740 L 7410 5996 L 7410 6253 L 7493 6248 C 7549 6244 7589 6236 7617 6221 z" stroke-linecap="round" />
</g>
		<g transform="matrix(0.13 0 0 -0.13 -472.79 8.64)"  >
<path style="stroke: none; stroke-width: 1; stroke-dasharray: none; stroke-linecap: butt; stroke-dashoffset: 0; stroke-linejoin: miter; stroke-miterlimit: 4; fill: #f9d71c; fill-rule: nonzero; opacity: 1;" vector-effect="non-scaling-stroke"  transform=" translate(-2440.43, -5935.19)" d="M 2486 6258 C 2464 6223 2298 5692 2297 5653 C 2296 5629 2302 5613 2315 5604 C 2339 5586 2374 5586 2388 5603 C 2394 5610 2442 5752 2496 5918 C 2584 6195 2591 6223 2580 6250 C 2570 6275 2562 6280 2534 6280 C 2510 6280 2496 6274 2486 6258 z" stroke-linecap="round" />
</g>
		<g transform="matrix(0.13 0 0 -0.13 60.62 17.22)"  >
<path style="stroke: none; stroke-width: 1; stroke-dasharray: none; stroke-linecap: butt; stroke-dashoffset: 0; stroke-linejoin: miter; stroke-miterlimit: 4; fill: #f9d71c; fill-rule: nonzero; opacity: 1;" vector-effect="non-scaling-stroke"  transform=" translate(-6441, -5870.82)" d="M 6745 6230 C 6682 6221 6636 6198 6586 6151 C 6560 6127 6546 6119 6543 6128 C 6533 6155 6489 6198 6456 6214 C 6412 6235 6289 6235 6227 6214 C 6202 6206 6161 6180 6136 6158 L 6090 6118 L 6090 6169 L 6090 6220 L 5980 6220 L 5870 6220 L 5870 5865 L 5870 5510 L 5995 5510 L 6120 5510 L 6120 5721 L 6120 5932 L 6159 5971 C 6201 6014 6249 6023 6286 5996 C 6304 5983 6305 5965 6310 5748 L 6315 5515 L 6438 5512 L 6560 5509 L 6560 5710 C 6560 5868 6563 5917 6575 5940 C 6609 6005 6697 6032 6736 5989 C 6753 5970 6755 5947 6758 5738 L 6761 5508 L 6792 5514 C 6809 5517 6865 5520 6917 5520 L 7012 5520 L 7008 5798 C 7004 6035 7001 6081 6986 6117 C 6966 6164 6912 6217 6877 6224 C 6824 6235 6792 6236 6745 6230 z" stroke-linecap="round" />
</g>
		<g transform="matrix(0.13 0 0 -0.13 328.35 17.15)"  >
<path style="stroke: none; stroke-width: 1; stroke-dasharray: none; stroke-linecap: butt; stroke-dashoffset: 0; stroke-linejoin: miter; stroke-miterlimit: 4; fill: #f9d71c; fill-rule: nonzero; opacity: 1;" vector-effect="non-scaling-stroke"  transform=" translate(-8449, -5871.37)" d="M 8362 6229 C 8244 6209 8131 6119 8089 6012 C 8072 5969 8067 5933 8066 5865 C 8066 5787 8070 5767 8094 5713 C 8127 5641 8198 5569 8263 5540 C 8372 5492 8532 5493 8637 5542 C 8688 5566 8790 5660 8790 5683 C 8790 5692 8756 5706 8691 5724 L 8593 5752 L 8568 5727 C 8531 5690 8470 5674 8421 5689 C 8371 5703 8343 5728 8334 5763 L 8328 5790 L 8580 5790 L 8832 5790 L 8828 5883 C 8825 5954 8818 5987 8799 6030 C 8750 6134 8647 6210 8524 6230 C 8457 6241 8436 6241 8362 6229 z M 8500 6045 C 8530 6030 8560 5984 8560 5955 C 8560 5942 8542 5940 8446 5940 C 8383 5940 8329 5943 8326 5948 C 8316 5964 8351 6021 8382 6040 C 8421 6064 8460 6065 8500 6045 z" stroke-linecap="round" />
</g>
		<g transform="matrix(0.13 0 0 -0.13 523.15 16.84)"  >
<path style="stroke: none; stroke-width: 1; stroke-dasharray: none; stroke-linecap: butt; stroke-dashoffset: 0; stroke-linejoin: miter; stroke-miterlimit: 4; fill: #f9d71c; fill-rule: nonzero; opacity: 1;" vector-effect="non-scaling-stroke"  transform=" translate(-9910, -5873.72)" d="M 9782 6222 C 9683 6186 9617 6098 9616 6000 C 9615 5897 9664 5853 9844 5794 C 9966 5755 9980 5747 9980 5719 C 9980 5665 9872 5674 9752 5736 C 9702 5762 9684 5767 9678 5758 C 9674 5751 9655 5717 9635 5683 L 9600 5621 L 9642 5592 C 9749 5519 9932 5489 10053 5524 C 10157 5554 10219 5634 10220 5738 C 10220 5858 10163 5906 9943 5970 C 9846 5998 9823 6021 9857 6055 C 9882 6080 9949 6069 10029 6028 L 10095 5993 L 10139 6064 C 10171 6116 10180 6138 10173 6150 C 10167 6158 10133 6180 10097 6199 C 10038 6229 10021 6233 9933 6237 C 9855 6240 9824 6237 9782 6222 z" stroke-linecap="round" />
</g>
		<g transform="matrix(0.13 0 0 -0.13 -78.58 18.03)"  >
<path style="stroke: none; stroke-width: 1; stroke-dasharray: none; stroke-linecap: butt; stroke-dashoffset: 0; stroke-linejoin: miter; stroke-miterlimit: 4; fill: #f9d71c; fill-rule: nonzero; opacity: 1;" vector-effect="non-scaling-stroke"  transform=" translate(-5397.05, -5864.8)" d="M 5270 6221 C 5166 6187 5087 6119 5043 6025 C 5018 5971 5015 5954 5015 5860 C 5015 5769 5018 5748 5040 5705 C 5072 5640 5142 5571 5205 5541 C 5382 5457 5640 5516 5723 5659 C 5744 5695 5752 5690 5625 5725 L 5536 5749 L 5516 5729 C 5452 5659 5322 5669 5285 5746 C 5277 5763 5270 5781 5270 5784 C 5270 5787 5382 5790 5520 5790 L 5769 5790 L 5776 5826 C 5785 5873 5774 5949 5749 6016 C 5723 6086 5649 6163 5573 6198 C 5523 6221 5500 6225 5405 6227 C 5345 6228 5284 6226 5270 6221 z M 5435 6046 C 5468 6032 5510 5980 5510 5953 C 5510 5943 5479 5940 5390 5940 C 5277 5940 5270 5941 5270 5960 C 5270 5986 5325 6048 5353 6053 C 5393 6061 5400 6060 5435 6046 z" stroke-linecap="round" />
</g>
		<g transform="matrix(0.13 0 0 -0.13 429.95 17.33)"  >
<path style="stroke: none; stroke-width: 1; stroke-dasharray: none; stroke-linecap: butt; stroke-dashoffset: 0; stroke-linejoin: miter; stroke-miterlimit: 4; fill: #f9d71c; fill-rule: nonzero; opacity: 1;" vector-effect="non-scaling-stroke"  transform=" translate(-9210.97, -5870)" d="M 8842 6211 C 8844 6206 8897 6049 8960 5861 L 9075 5520 L 9214 5522 L 9353 5525 L 9467 5865 C 9529 6052 9580 6208 9580 6212 C 9580 6217 9529 6220 9467 6220 L 9355 6220 L 9296 5983 C 9264 5852 9234 5738 9230 5731 C 9221 5713 9223 5707 9149 6003 L 9095 6220 L 8967 6220 C 8896 6220 8840 6216 8842 6211 z" stroke-linecap="round" />
</g>
		<g transform="matrix(0.13 0 0 -0.13 -534.01 18.13)"  >
<path style="stroke: none; stroke-width: 1; stroke-dasharray: none; stroke-linecap: butt; stroke-dashoffset: 0; stroke-linejoin: miter; stroke-miterlimit: 4; fill: #f9d71c; fill-rule: nonzero; opacity: 1;" vector-effect="non-scaling-stroke"  transform=" translate(-1981.33, -5864.06)" d="M 1958 6008 C 1684 5867 1684 5863 1960 5725 C 2064 5673 2158 5630 2168 5630 C 2178 5630 2191 5635 2198 5642 C 2211 5655 2214 5699 2202 5717 C 2198 5724 2128 5760 2047 5798 L 1901 5867 L 2038 5931 C 2113 5965 2183 6000 2193 6008 C 2213 6025 2216 6070 2198 6088 C 2175 6111 2137 6099 1958 6008 z" stroke-linecap="round" />
</g>
		<g transform="matrix(0.13 0 0 -0.13 -411.61 17.94)"  >
<path style="stroke: none; stroke-width: 1; stroke-dasharray: none; stroke-linecap: butt; stroke-dashoffset: 0; stroke-linejoin: miter; stroke-miterlimit: 4; fill: #f9d71c; fill-rule: nonzero; opacity: 1;" vector-effect="non-scaling-stroke"  transform=" translate(-2899.28, -5865.48)" d="M 2681 6086 C 2674 6078 2670 6059 2672 6043 C 2675 6019 2687 6009 2755 5975 C 2799 5952 2869 5919 2910 5901 L 2985 5868 L 2880 5819 C 2670 5722 2658 5713 2676 5663 C 2682 5644 2693 5634 2710 5633 C 2725 5631 2810 5669 2925 5728 C 3084 5809 3117 5830 3125 5853 C 3138 5892 3123 5904 2918 6009 C 2741 6100 2703 6112 2681 6086 z" stroke-linecap="round" />
</g>
</g>
</g>
<g transform="matrix(NaN NaN NaN NaN 0 0)"  >
<g style=""   >
</g>
</g>
</svg>