<?xml version="1.0" encoding="utf-8"?>
<svg viewBox="0 0 2080 1170.052" xmlns="http://www.w3.org/2000/svg">
  <path d="M 1077.258 459.056 L 1214.168 343.201 L 1011.012 303.93 L 1077.258 459.056 Z" fill="#e10048" stroke="#e10048" stroke-width="1" stroke-linejoin="bevel" style=""/>
  <path d="M 1214.168 343.201 L 1046.342 198.764 L 1011.012 303.93 L 1214.168 343.201 Z" fill="#e10048" stroke="#e10048" stroke-width="1" stroke-linejoin="bevel" style=""/>
  <path d="M 1214.168 343.201 L 1200.918 174.765 L 1046.342 198.764 L 1214.168 343.201 Z" fill="#6aab00" stroke="#6aab00" stroke-width="1" stroke-linejoin="bevel" style=""/>
  <path d="M 1077.258 459.056 L 1264.958 500.512 L 1214.168 343.201 L 1077.258 459.056 Z" fill="#d90064" stroke="#d90064" stroke-width="1" stroke-linejoin="bevel" style=""/>
  <path d="M 1214.168 343.201 L 1395.243 301.748 L 1200.918 174.765 L 1214.168 343.201 Z" fill="#00bb00" stroke="#00bb00" stroke-width="1" stroke-linejoin="bevel" style=""/>
  <path d="M 834.351 137.674 L 889.558 341.019 L 1011.012 303.93 L 834.351 137.674 Z" fill="#00bb00" stroke="#00bb00" stroke-width="1" stroke-linejoin="bevel" style=""/>
  <path d="M 1011.012 303.93 L 889.558 341.019 L 1077.258 459.056 L 1011.012 303.93 Z" fill="#da5100" stroke="#da5100" stroke-width="1" stroke-linejoin="bevel" style=""/>
  <path d="M 889.558 341.019 L 891.765 493.965 L 1077.258 459.056 L 889.558 341.019 Z" fill="#aa0099" stroke="#aa0099" stroke-width="1" stroke-linejoin="bevel" style=""/>
  <path d="M 1077.258 459.056 L 1187.67 655.857 L 1264.958 500.512 L 1077.258 459.056 Z" fill="#00bb00" stroke="#00bb00" stroke-width="1" stroke-linejoin="bevel" style=""/>
  <path d="M 1264.958 500.512 L 1395.243 301.748 L 1214.168 343.201 L 1264.958 500.512 Z" fill="#00bb00" stroke="#00bb00" stroke-width="1" stroke-linejoin="bevel" style=""/>
  <path d="M 1077.258 730.04 L 1187.67 655.857 L 1077.258 459.056 L 1077.258 730.04 Z" fill="#cb6c00" stroke="#cb6c00" stroke-width="1" stroke-linejoin="bevel" style=""/>
  <path d="M 1264.958 500.512 L 1390.827 531.057 L 1395.243 301.748 L 1264.958 500.512 Z" fill="#cb6c00" stroke="#cb6c00" stroke-width="1" stroke-linejoin="bevel" style=""/>
  <path d="M 1187.67 655.857 L 1390.827 531.057 L 1264.958 500.512 L 1187.67 655.857 Z" fill="#cb6c00" stroke="#cb6c00" stroke-width="1" stroke-linejoin="bevel" style=""/>
  <path d="M 924.89 0 L 834.351 137.674 L 1046.342 198.764 L 924.89 0 Z" fill="#e1312b" stroke="#e1312b" stroke-width="1" stroke-linejoin="bevel" style=""/>
  <path d="M 1046.342 198.764 L 834.351 137.674 L 1011.012 303.93 L 1046.342 198.764 Z" fill="#b48400" stroke="#b48400" stroke-width="1" stroke-linejoin="bevel" style=""/>
  <path d="M 889.558 341.019 L 719.523 347.565 L 891.765 493.965 L 889.558 341.019 Z" fill="#e1312b" stroke="#e1312b" stroke-width="1" stroke-linejoin="bevel" style=""/>
  <path d="M 1198.711 0 L 1041.926 0 L 1200.918 174.765 L 1198.711 0 Z" fill="#959900" stroke="#959900" stroke-width="1" stroke-linejoin="bevel" style=""/>
  <path d="M 1200.918 174.765 L 1041.926 0 L 1046.342 198.764 L 1200.918 174.765 Z" fill="#c70080" stroke="#c70080" stroke-width="1" stroke-linejoin="bevel" style=""/>
  <path d="M 1353.288 0 L 1198.711 0 L 1200.918 174.765 L 1353.288 0 Z" fill="#b48400" stroke="#b48400" stroke-width="1" stroke-linejoin="bevel" style=""/>
  <path d="M 891.765 493.965 L 1077.258 730.04 L 1077.258 459.056 L 891.765 493.965 Z" fill="#959900" stroke="#959900" stroke-width="1" stroke-linejoin="bevel" style=""/>
  <path d="M 1187.67 655.857 L 1399.661 727.858 L 1390.827 531.057 L 1187.67 655.857 Z" fill="#d90064" stroke="#d90064" stroke-width="1" stroke-linejoin="bevel" style=""/>
  <path d="M 1571.903 391.203 L 1426.159 150.764 L 1395.243 301.748 L 1571.903 391.203 Z" fill="#00bb00" stroke="#00bb00" stroke-width="1" stroke-linejoin="bevel" style=""/>
  <path d="M 1395.243 301.748 L 1426.159 150.764 L 1200.918 174.765 L 1395.243 301.748 Z" fill="#959900" stroke="#959900" stroke-width="1" stroke-linejoin="bevel" style=""/>
  <path d="M 750.439 168.219 L 719.523 347.565 L 889.558 341.019 L 750.439 168.219 Z" fill="#d90064" stroke="#d90064" stroke-width="1" stroke-linejoin="bevel" style=""/>
  <path d="M 891.765 493.965 L 880.724 712.585 L 1077.258 730.04 L 891.765 493.965 Z" fill="#d90064" stroke="#d90064" stroke-width="1" stroke-linejoin="bevel" style=""/>
  <path d="M 1041.926 0 L 924.89 0 L 1046.342 198.764 L 1041.926 0 Z" fill="#e1312b" stroke="#e1312b" stroke-width="1" stroke-linejoin="bevel" style=""/>
  <path d="M 834.351 137.674 L 750.439 168.219 L 889.558 341.019 L 834.351 137.674 Z" fill="#cb6c00" stroke="#cb6c00" stroke-width="1" stroke-linejoin="bevel" style=""/>
  <path d="M 730.566 0 L 750.439 168.219 L 834.351 137.674 L 730.566 0 Z" fill="#aa0099" stroke="#aa0099" stroke-width="1" stroke-linejoin="bevel" style=""/>
  <path d="M 547.282 317.02 L 697.441 461.238 L 719.523 347.565 L 547.282 317.02 Z" fill="#c70080" stroke="#c70080" stroke-width="1" stroke-linejoin="bevel" style=""/>
  <path d="M 719.523 347.565 L 697.441 461.238 L 891.765 493.965 L 719.523 347.565 Z" fill="#c70080" stroke="#c70080" stroke-width="1" stroke-linejoin="bevel" style=""/>
  <path d="M 686.4 658.039 L 880.724 712.585 L 891.765 493.965 L 686.4 658.039 Z" fill="#e1312b" stroke="#e1312b" stroke-width="1" stroke-linejoin="bevel" style=""/>
  <path d="M 1426.159 150.764 L 1353.288 0 L 1200.918 174.765 L 1426.159 150.764 Z" fill="#cb6c00" stroke="#cb6c00" stroke-width="1" stroke-linejoin="bevel" style=""/>
  <path d="M 880.724 712.585 L 1070.633 810.986 L 1077.258 730.04 L 880.724 712.585 Z" fill="#6aab00" stroke="#6aab00" stroke-width="1" stroke-linejoin="bevel" style=""/>
  <path d="M 1077.258 730.04 L 1216.377 813.168 L 1187.67 655.857 L 1077.258 730.04 Z" fill="#6aab00" stroke="#6aab00" stroke-width="1" stroke-linejoin="bevel" style=""/>
  <path d="M 1638.15 557.239 L 1571.903 391.203 L 1390.827 531.057 L 1638.15 557.239 Z" fill="#00bb00" stroke="#00bb00" stroke-width="1" stroke-linejoin="bevel" style=""/>
  <path d="M 1390.827 531.057 L 1571.903 391.203 L 1395.243 301.748 L 1390.827 531.057 Z" fill="#959900" stroke="#959900" stroke-width="1" stroke-linejoin="bevel" style=""/>
  <path d="M 1426.159 150.764 L 1642.566 0 L 1353.288 0 L 1426.159 150.764 Z" fill="#00bb00" stroke="#00bb00" stroke-width="1" stroke-linejoin="bevel" style=""/>
  <path d="M 1070.633 810.986 L 1216.377 813.168 L 1077.258 730.04 L 1070.633 810.986 Z" fill="#6aab00" stroke="#6aab00" stroke-width="1" stroke-linejoin="bevel" style=""/>
  <path d="M 1216.377 813.168 L 1399.661 727.858 L 1187.67 655.857 L 1216.377 813.168 Z" fill="#e10048" stroke="#e10048" stroke-width="1" stroke-linejoin="bevel" style=""/>
  <path d="M 697.441 461.238 L 686.4 658.039 L 891.765 493.965 L 697.441 461.238 Z" fill="#e1312b" stroke="#e1312b" stroke-width="1" stroke-linejoin="bevel" style=""/>
  <path d="M 880.724 712.585 L 854.226 834.986 L 1070.633 810.986 L 880.724 712.585 Z" fill="#959900" stroke="#959900" stroke-width="1" stroke-linejoin="bevel" style=""/>
  <path d="M 924.89 0 L 730.566 0 L 834.351 137.674 L 924.89 0 Z" fill="#cb6c00" stroke="#cb6c00" stroke-width="1" stroke-linejoin="bevel" style=""/>
  <path d="M 750.439 168.219 L 547.282 317.02 L 719.523 347.565 L 750.439 168.219 Z" fill="#6aab00" stroke="#6aab00" stroke-width="1" stroke-linejoin="bevel" style=""/>
  <path d="M 739.398 837.168 L 854.226 834.986 L 880.724 712.585 L 739.398 837.168 Z" fill="#d90064" stroke="#d90064" stroke-width="1" stroke-linejoin="bevel" style=""/>
  <path d="M 1289.249 979.424 L 1430.575 880.804 L 1216.377 813.168 L 1289.249 979.424 Z" fill="#c70080" stroke="#c70080" stroke-width="1" stroke-linejoin="bevel" style=""/>
  <path d="M 1567.486 817.532 L 1532.155 695.131 L 1399.661 727.858 L 1567.486 817.532 Z" fill="#d90064" stroke="#d90064" stroke-width="1" stroke-linejoin="bevel" style=""/>
  <path d="M 1399.661 727.858 L 1532.155 695.131 L 1390.827 531.057 L 1399.661 727.858 Z" fill="#cb6c00" stroke="#cb6c00" stroke-width="1" stroke-linejoin="bevel" style=""/>
  <path d="M 489.868 126.764 L 547.282 317.02 L 750.439 168.219 L 489.868 126.764 Z" fill="#da5100" stroke="#da5100" stroke-width="1" stroke-linejoin="bevel" style=""/>
  <path d="M 697.441 461.238 L 562.739 563.784 L 686.4 658.039 L 697.441 461.238 Z" fill="#e1312b" stroke="#e1312b" stroke-width="1" stroke-linejoin="bevel" style=""/>
  <path d="M 1532.155 695.131 L 1638.15 557.239 L 1390.827 531.057 L 1532.155 695.131 Z" fill="#cb6c00" stroke="#cb6c00" stroke-width="1" stroke-linejoin="bevel" style=""/>
  <path d="M 1717.646 172.583 L 1635.941 133.31 L 1571.903 391.203 L 1717.646 172.583 Z" fill="#d90064" stroke="#d90064" stroke-width="1" stroke-linejoin="bevel" style=""/>
  <path d="M 1571.903 391.203 L 1635.941 133.31 L 1426.159 150.764 L 1571.903 391.203 Z" fill="#e1312b" stroke="#e1312b" stroke-width="1" stroke-linejoin="bevel" style=""/>
  <path d="M 547.282 317.02 L 562.739 563.784 L 697.441 461.238 L 547.282 317.02 Z" fill="#e10048" stroke="#e10048" stroke-width="1" stroke-linejoin="bevel" style=""/>
  <path d="M 686.4 658.039 L 739.398 837.168 L 880.724 712.585 L 686.4 658.039 Z" fill="#d90064" stroke="#d90064" stroke-width="1" stroke-linejoin="bevel" style=""/>
  <path d="M 472.202 850.259 L 739.398 837.168 L 686.4 658.039 L 472.202 850.259 Z" fill="#b48400" stroke="#b48400" stroke-width="1" stroke-linejoin="bevel" style=""/>
  <path d="M 1289.249 979.424 L 1216.377 813.168 L 1057.383 1005.605 L 1289.249 979.424 Z" fill="#aa0099" stroke="#aa0099" stroke-width="1" stroke-linejoin="bevel" style=""/>
  <path d="M 1216.377 813.168 L 1430.575 880.804 L 1399.661 727.858 L 1216.377 813.168 Z" fill="#959900" stroke="#959900" stroke-width="1" stroke-linejoin="bevel" style=""/>
  <path d="M 1532.155 695.131 L 1788.31 653.675 L 1638.15 557.239 L 1532.155 695.131 Z" fill="#e10048" stroke="#e10048" stroke-width="1" stroke-linejoin="bevel" style=""/>
  <path d="M 1216.377 813.168 L 1070.633 810.986 L 1057.383 1005.605 L 1216.377 813.168 Z" fill="#6aab00" stroke="#6aab00" stroke-width="1" stroke-linejoin="bevel" style=""/>
  <path d="M 730.566 0 L 589.237 0 L 750.439 168.219 L 730.566 0 Z" fill="#b48400" stroke="#b48400" stroke-width="1" stroke-linejoin="bevel" style=""/>
  <path d="M 1828.058 277.747 L 1717.646 172.583 L 1571.903 391.203 L 1828.058 277.747 Z" fill="#c70080" stroke="#c70080" stroke-width="1" stroke-linejoin="bevel" style=""/>
  <path d="M 341.915 528.875 L 525.198 631.858 L 562.739 563.784 L 341.915 528.875 Z" fill="#959900" stroke="#959900" stroke-width="1" stroke-linejoin="bevel" style=""/>
  <path d="M 562.739 563.784 L 525.198 631.858 L 686.4 658.039 L 562.739 563.784 Z" fill="#c70080" stroke="#c70080" stroke-width="1" stroke-linejoin="bevel" style=""/>
  <path d="M 1717.646 172.583 L 1642.566 0 L 1635.941 133.31 L 1717.646 172.583 Z" fill="#959900" stroke="#959900" stroke-width="1" stroke-linejoin="bevel" style=""/>
  <path d="M 1635.941 133.31 L 1642.566 0 L 1426.159 150.764 L 1635.941 133.31 Z" fill="#00bb00" stroke="#00bb00" stroke-width="1" stroke-linejoin="bevel" style=""/>
  <path d="M 1430.575 880.804 L 1567.486 817.532 L 1399.661 727.858 L 1430.575 880.804 Z" fill="#b48400" stroke="#b48400" stroke-width="1" stroke-linejoin="bevel" style=""/>
  <path d="M 1057.383 1005.605 L 1070.633 810.986 L 911.64 1018.697 L 1057.383 1005.605 Z" fill="#da5100" stroke="#da5100" stroke-width="1" stroke-linejoin="bevel" style=""/>
  <path d="M 1430.575 880.804 L 1534.362 1060.15 L 1567.486 817.532 L 1430.575 880.804 Z" fill="#00bb00" stroke="#00bb00" stroke-width="1" stroke-linejoin="bevel" style=""/>
  <path d="M 589.237 0 L 489.868 126.764 L 750.439 168.219 L 589.237 0 Z" fill="#cb6c00" stroke="#cb6c00" stroke-width="1" stroke-linejoin="bevel" style=""/>
  <path d="M 547.282 317.02 L 394.913 334.475 L 562.739 563.784 L 547.282 317.02 Z" fill="#00bb00" stroke="#00bb00" stroke-width="1" stroke-linejoin="bevel" style=""/>
  <path d="M 911.64 1018.697 L 1070.633 810.986 L 854.226 834.986 L 911.64 1018.697 Z" fill="#da5100" stroke="#da5100" stroke-width="1" stroke-linejoin="bevel" style=""/>
  <path d="M 730.566 975.059 L 911.64 1018.697 L 854.226 834.986 L 730.566 975.059 Z" fill="#6aab00" stroke="#6aab00" stroke-width="1" stroke-linejoin="bevel" style=""/>
  <path d="M 730.566 975.059 L 854.226 834.986 L 739.398 837.168 L 730.566 975.059 Z" fill="#959900" stroke="#959900" stroke-width="1" stroke-linejoin="bevel" style=""/>
  <path d="M 357.374 190.038 L 394.913 334.475 L 547.282 317.02 L 357.374 190.038 Z" fill="#cb6c00" stroke="#cb6c00" stroke-width="1" stroke-linejoin="bevel" style=""/>
  <path d="M 1788.31 653.675 L 1814.808 480.875 L 1638.15 557.239 L 1788.31 653.675 Z" fill="#6aab00" stroke="#6aab00" stroke-width="1" stroke-linejoin="bevel" style=""/>
  <path d="M 1638.15 557.239 L 1814.808 480.875 L 1571.903 391.203 L 1638.15 557.239 Z" fill="#cb6c00" stroke="#cb6c00" stroke-width="1" stroke-linejoin="bevel" style=""/>
  <path d="M 1814.808 480.875 L 1828.058 277.747 L 1571.903 391.203 L 1814.808 480.875 Z" fill="#b48400" stroke="#b48400" stroke-width="1" stroke-linejoin="bevel" style=""/>
  <path d="M 1717.646 172.583 L 1803.767 0 L 1642.566 0 L 1717.646 172.583 Z" fill="#cb6c00" stroke="#cb6c00" stroke-width="1" stroke-linejoin="bevel" style=""/>
  <path d="M 587.03 999.06 L 730.566 975.059 L 739.398 837.168 L 587.03 999.06 Z" fill="#aa0099" stroke="#aa0099" stroke-width="1" stroke-linejoin="bevel" style=""/>
  <path d="M 1293.665 1178.187 L 1390.827 1029.605 L 1289.249 979.424 L 1293.665 1178.187 Z" fill="#da5100" stroke="#da5100" stroke-width="1" stroke-linejoin="bevel" style=""/>
  <path d="M 1289.249 979.424 L 1390.827 1029.605 L 1430.575 880.804 L 1289.249 979.424 Z" fill="#e1312b" stroke="#e1312b" stroke-width="1" stroke-linejoin="bevel" style=""/>
  <path d="M 1293.665 1178.187 L 1289.249 979.424 L 1057.383 1005.605 L 1293.665 1178.187 Z" fill="#cb6c00" stroke="#cb6c00" stroke-width="1" stroke-linejoin="bevel" style=""/>
  <path d="M 1726.48 872.078 L 1788.31 653.675 L 1567.486 817.532 L 1726.48 872.078 Z" fill="#d90064" stroke="#d90064" stroke-width="1" stroke-linejoin="bevel" style=""/>
  <path d="M 1567.486 817.532 L 1788.31 653.675 L 1532.155 695.131 L 1567.486 817.532 Z" fill="#da5100" stroke="#da5100" stroke-width="1" stroke-linejoin="bevel" style=""/>
  <path d="M 308.792 0 L 357.374 190.038 L 489.868 126.764 L 308.792 0 Z" fill="#da5100" stroke="#da5100" stroke-width="1" stroke-linejoin="bevel" style=""/>
  <path d="M 489.868 126.764 L 357.374 190.038 L 547.282 317.02 L 489.868 126.764 Z" fill="#cb6c00" stroke="#cb6c00" stroke-width="1" stroke-linejoin="bevel" style=""/>
  <path d="M 394.913 334.475 L 341.915 528.875 L 562.739 563.784 L 394.913 334.475 Z" fill="#e1312b" stroke="#e1312b" stroke-width="1" stroke-linejoin="bevel" style=""/>
  <path d="M 525.198 631.858 L 472.202 850.259 L 686.4 658.039 L 525.198 631.858 Z" fill="#00bb00" stroke="#00bb00" stroke-width="1" stroke-linejoin="bevel" style=""/>
  <path d="M 180.715 378.11 L 341.915 528.875 L 394.913 334.475 L 180.715 378.11 Z" fill="#e10048" stroke="#e10048" stroke-width="1" stroke-linejoin="bevel" style=""/>
  <path d="M 1885.472 0 L 1803.767 0 L 1717.646 172.583 L 1885.472 0 Z" fill="#d90064" stroke="#d90064" stroke-width="1" stroke-linejoin="bevel" style=""/>
  <path d="M 1814.808 480.875 L 1971.594 293.019 L 1828.058 277.747 L 1814.808 480.875 Z" fill="#da5100" stroke="#da5100" stroke-width="1" stroke-linejoin="bevel" style=""/>
  <path d="M 1989.26 150.764 L 1885.472 0 L 1717.646 172.583 L 1989.26 150.764 Z" fill="#cb6c00" stroke="#cb6c00" stroke-width="1" stroke-linejoin="bevel" style=""/>
  <path d="M 1788.31 653.675 L 1892.097 524.512 L 1814.808 480.875 L 1788.31 653.675 Z" fill="#b48400" stroke="#b48400" stroke-width="1" stroke-linejoin="bevel" style=""/>
  <path d="M 368.415 688.586 L 472.202 850.259 L 525.198 631.858 L 368.415 688.586 Z" fill="#e1312b" stroke="#e1312b" stroke-width="1" stroke-linejoin="bevel" style=""/>
  <path d="M 341.915 528.875 L 368.415 688.586 L 525.198 631.858 L 341.915 528.875 Z" fill="#e10048" stroke="#e10048" stroke-width="1" stroke-linejoin="bevel" style=""/>
  <path d="M 1708.814 990.332 L 1726.48 872.078 L 1567.486 817.532 L 1708.814 990.332 Z" fill="#da5100" stroke="#da5100" stroke-width="1" stroke-linejoin="bevel" style=""/>
  <path d="M 1788.31 653.675 L 1971.594 721.313 L 1892.097 524.512 L 1788.31 653.675 Z" fill="#c70080" stroke="#c70080" stroke-width="1" stroke-linejoin="bevel" style=""/>
  <path d="M 1474.741 1178.187 L 1534.362 1060.15 L 1390.827 1029.605 L 1474.741 1178.187 Z" fill="#e10048" stroke="#e10048" stroke-width="1" stroke-linejoin="bevel" style=""/>
  <path d="M 1390.827 1029.605 L 1534.362 1060.15 L 1430.575 880.804 L 1390.827 1029.605 Z" fill="#da5100" stroke="#da5100" stroke-width="1" stroke-linejoin="bevel" style=""/>
  <path d="M 472.202 850.259 L 587.03 999.06 L 739.398 837.168 L 472.202 850.259 Z" fill="#e10048" stroke="#e10048" stroke-width="1" stroke-linejoin="bevel" style=""/>
  <path d="M 832.144 1178.187 L 1061.801 1178.187 L 911.64 1018.697 L 832.144 1178.187 Z" fill="#e10048" stroke="#e10048" stroke-width="1" stroke-linejoin="bevel" style=""/>
  <path d="M 911.64 1018.697 L 1061.801 1178.187 L 1057.383 1005.605 L 911.64 1018.697 Z" fill="#00bb00" stroke="#00bb00" stroke-width="1" stroke-linejoin="bevel" style=""/>
  <path d="M 832.144 1178.187 L 911.64 1018.697 L 730.566 975.059 L 832.144 1178.187 Z" fill="#00bb00" stroke="#00bb00" stroke-width="1" stroke-linejoin="bevel" style=""/>
  <path d="M 1061.801 1178.187 L 1293.665 1178.187 L 1057.383 1005.605 L 1061.801 1178.187 Z" fill="#e10048" stroke="#e10048" stroke-width="1" stroke-linejoin="bevel" style=""/>
  <path d="M 1989.26 150.764 L 1717.646 172.583 L 1828.058 277.747 L 1989.26 150.764 Z" fill="#e1312b" stroke="#e1312b" stroke-width="1" stroke-linejoin="bevel" style=""/>
  <path d="M 1892.097 524.512 L 1971.594 293.019 L 1814.808 480.875 L 1892.097 524.512 Z" fill="#6aab00" stroke="#6aab00" stroke-width="1" stroke-linejoin="bevel" style=""/>
  <path d="M 589.237 0 L 308.792 0 L 489.868 126.764 L 589.237 0 Z" fill="#cb6c00" stroke="#cb6c00" stroke-width="1" stroke-linejoin="bevel" style=""/>
  <path d="M 357.374 190.038 L 180.715 378.11 L 394.913 334.475 L 357.374 190.038 Z" fill="#e1312b" stroke="#e1312b" stroke-width="1" stroke-linejoin="bevel" style=""/>
  <path d="M 759.273 1178.187 L 832.144 1178.187 L 730.566 975.059 L 759.273 1178.187 Z" fill="#6aab00" stroke="#6aab00" stroke-width="1" stroke-linejoin="bevel" style=""/>
  <path d="M 1534.362 1060.15 L 1708.814 990.332 L 1567.486 817.532 L 1534.362 1060.15 Z" fill="#cb6c00" stroke="#cb6c00" stroke-width="1" stroke-linejoin="bevel" style=""/>
  <path d="M 1726.48 872.078 L 1894.304 856.805 L 1788.31 653.675 L 1726.48 872.078 Z" fill="#d90064" stroke="#d90064" stroke-width="1" stroke-linejoin="bevel" style=""/>
  <path d="M 1571.903 1178.187 L 1708.814 990.332 L 1534.362 1060.15 L 1571.903 1178.187 Z" fill="#959900" stroke="#959900" stroke-width="1" stroke-linejoin="bevel" style=""/>
  <path d="M 587.03 999.06 L 759.273 1178.187 L 730.566 975.059 L 587.03 999.06 Z" fill="#cb6c00" stroke="#cb6c00" stroke-width="1" stroke-linejoin="bevel" style=""/>
  <path d="M 1971.594 293.019 L 1989.26 150.764 L 1828.058 277.747 L 1971.594 293.019 Z" fill="#c70080" stroke="#c70080" stroke-width="1" stroke-linejoin="bevel" style=""/>
  <path d="M 1293.665 1178.187 L 1474.741 1178.187 L 1390.827 1029.605 L 1293.665 1178.187 Z" fill="#e10048" stroke="#e10048" stroke-width="1" stroke-linejoin="bevel" style=""/>
  <path d="M 143.174 118.037 L 180.715 378.11 L 357.374 190.038 L 143.174 118.037 Z" fill="#959900" stroke="#959900" stroke-width="1" stroke-linejoin="bevel" style=""/>
  <path d="M 341.915 528.875 L 138.758 636.221 L 368.415 688.586 L 341.915 528.875 Z" fill="#cb6c00" stroke="#cb6c00" stroke-width="1" stroke-linejoin="bevel" style=""/>
  <path d="M 1916.387 968.513 L 1726.48 872.078 L 1708.814 990.332 L 1916.387 968.513 Z" fill="#c70080" stroke="#c70080" stroke-width="1" stroke-linejoin="bevel" style=""/>
  <path d="M 1916.387 968.513 L 1894.304 856.805 L 1726.48 872.078 L 1916.387 968.513 Z" fill="#c70080" stroke="#c70080" stroke-width="1" stroke-linejoin="bevel" style=""/>
  <path d="M 2121.752 559.421 L 2121.752 275.565 L 1971.594 293.019 L 2121.752 559.421 Z" fill="#e1312b" stroke="#e1312b" stroke-width="1" stroke-linejoin="bevel" style=""/>
  <path d="M 1894.304 856.805 L 1971.594 721.313 L 1788.31 653.675 L 1894.304 856.805 Z" fill="#cb6c00" stroke="#cb6c00" stroke-width="1" stroke-linejoin="bevel" style=""/>
  <path d="M 1971.594 293.019 L 2121.752 275.565 L 1989.26 150.764 L 1971.594 293.019 Z" fill="#e1312b" stroke="#e1312b" stroke-width="1" stroke-linejoin="bevel" style=""/>
  <path d="M 180.715 378.11 L 158.631 445.966 L 341.915 528.875 L 180.715 378.11 Z" fill="#00bb00" stroke="#00bb00" stroke-width="1" stroke-linejoin="bevel" style=""/>
  <path d="M 368.415 688.586 L 302.167 889.532 L 472.202 850.259 L 368.415 688.586 Z" fill="#00bb00" stroke="#00bb00" stroke-width="1" stroke-linejoin="bevel" style=""/>
  <path d="M 472.202 850.259 L 388.288 1014.333 L 587.03 999.06 L 472.202 850.259 Z" fill="#e10048" stroke="#e10048" stroke-width="1" stroke-linejoin="bevel" style=""/>
  <path d="M 1474.741 1178.187 L 1571.903 1178.187 L 1534.362 1060.15 L 1474.741 1178.187 Z" fill="#cb6c00" stroke="#cb6c00" stroke-width="1" stroke-linejoin="bevel" style=""/>
  <path d="M 138.758 636.221 L 302.167 889.532 L 368.415 688.586 L 138.758 636.221 Z" fill="#959900" stroke="#959900" stroke-width="1" stroke-linejoin="bevel" style=""/>
  <path d="M 587.03 999.06 L 534.032 1178.187 L 759.273 1178.187 L 587.03 999.06 Z" fill="#b48400" stroke="#b48400" stroke-width="1" stroke-linejoin="bevel" style=""/>
  <path d="M 302.167 889.532 L 388.288 1014.333 L 472.202 850.259 L 302.167 889.532 Z" fill="#aa0099" stroke="#aa0099" stroke-width="1" stroke-linejoin="bevel" style=""/>
  <path d="M 308.792 0 L 143.174 118.037 L 357.374 190.038 L 308.792 0 Z" fill="#da5100" stroke="#da5100" stroke-width="1" stroke-linejoin="bevel" style=""/>
  <path d="M 180.715 378.11 L 1.848 299.566 L 158.631 445.966 L 180.715 378.11 Z" fill="#d90064" stroke="#d90064" stroke-width="1" stroke-linejoin="bevel" style=""/>
  <path d="M 1.848 561.604 L 138.758 636.221 L 158.631 445.966 L 1.848 561.604 Z" fill="#6aab00" stroke="#6aab00" stroke-width="1" stroke-linejoin="bevel" style=""/>
  <path d="M 158.631 445.966 L 138.758 636.221 L 341.915 528.875 L 158.631 445.966 Z" fill="#b48400" stroke="#b48400" stroke-width="1" stroke-linejoin="bevel" style=""/>
  <path d="M 388.288 1014.333 L 534.032 1178.187 L 587.03 999.06 L 388.288 1014.333 Z" fill="#c70080" stroke="#c70080" stroke-width="1" stroke-linejoin="bevel" style=""/>
  <path d="M 2121.752 559.421 L 1971.594 293.019 L 1892.097 524.512 L 2121.752 559.421 Z" fill="#d90064" stroke="#d90064" stroke-width="1" stroke-linejoin="bevel" style=""/>
  <path d="M 1989.26 150.764 L 2121.752 0 L 1885.472 0 L 1989.26 150.764 Z" fill="#959900" stroke="#959900" stroke-width="1" stroke-linejoin="bevel" style=""/>
  <path d="M 2121.752 898.259 L 2121.752 688.586 L 1971.594 721.313 L 2121.752 898.259 Z" fill="#e10048" stroke="#e10048" stroke-width="1" stroke-linejoin="bevel" style=""/>
  <path d="M 1971.594 721.313 L 2121.752 559.421 L 1892.097 524.512 L 1971.594 721.313 Z" fill="#da5100" stroke="#da5100" stroke-width="1" stroke-linejoin="bevel" style=""/>
  <path d="M 1885.472 1178.187 L 1916.387 968.513 L 1708.814 990.332 L 1885.472 1178.187 Z" fill="#d90064" stroke="#d90064" stroke-width="1" stroke-linejoin="bevel" style=""/>
  <path d="M 2121.752 275.565 L 2121.752 179.127 L 1989.26 150.764 L 2121.752 275.565 Z" fill="#e1312b" stroke="#e1312b" stroke-width="1" stroke-linejoin="bevel" style=""/>
  <path d="M 2121.752 688.586 L 2121.752 559.421 L 1971.594 721.313 L 2121.752 688.586 Z" fill="#e10048" stroke="#e10048" stroke-width="1" stroke-linejoin="bevel" style=""/>
  <path d="M 1571.903 1178.187 L 1726.48 1178.187 L 1708.814 990.332 L 1571.903 1178.187 Z" fill="#959900" stroke="#959900" stroke-width="1" stroke-linejoin="bevel" style=""/>
  <path d="M 308.792 0 L 123.301 0 L 143.174 118.037 L 308.792 0 Z" fill="#cb6c00" stroke="#cb6c00" stroke-width="1" stroke-linejoin="bevel" style=""/>
  <path d="M 143.174 118.037 L 1.848 299.566 L 180.715 378.11 L 143.174 118.037 Z" fill="#c70080" stroke="#c70080" stroke-width="1" stroke-linejoin="bevel" style=""/>
  <path d="M 2121.752 898.259 L 1971.594 721.313 L 1894.304 856.805 L 2121.752 898.259 Z" fill="#b48400" stroke="#b48400" stroke-width="1" stroke-linejoin="bevel" style=""/>
  <path d="M 2121.752 179.127 L 2121.752 0 L 1989.26 150.764 L 2121.752 179.127 Z" fill="#cb6c00" stroke="#cb6c00" stroke-width="1" stroke-linejoin="bevel" style=""/>
  <path d="M 302.167 889.532 L 167.465 994.696 L 388.288 1014.333 L 302.167 889.532 Z" fill="#b48400" stroke="#b48400" stroke-width="1" stroke-linejoin="bevel" style=""/>
  <path d="M 388.288 1014.333 L 344.124 1178.187 L 534.032 1178.187 L 388.288 1014.333 Z" fill="#d90064" stroke="#d90064" stroke-width="1" stroke-linejoin="bevel" style=""/>
  <path d="M 138.758 636.221 L 163.049 900.441 L 302.167 889.532 L 138.758 636.221 Z" fill="#e1312b" stroke="#e1312b" stroke-width="1" stroke-linejoin="bevel" style=""/>
  <path d="M 1.848 183.491 L 1.848 299.566 L 143.174 118.037 L 1.848 183.491 Z" fill="#00bb00" stroke="#00bb00" stroke-width="1" stroke-linejoin="bevel" style=""/>
  <path d="M 138.758 636.221 L 1.848 780.441 L 163.049 900.441 L 138.758 636.221 Z" fill="#00bb00" stroke="#00bb00" stroke-width="1" stroke-linejoin="bevel" style=""/>
  <path d="M 1.848 0 L 1.848 183.491 L 143.174 118.037 L 1.848 0 Z" fill="#cb6c00" stroke="#cb6c00" stroke-width="1" stroke-linejoin="bevel" style=""/>
  <path d="M 1.848 299.566 L 1.848 561.604 L 158.631 445.966 L 1.848 299.566 Z" fill="#e1312b" stroke="#e1312b" stroke-width="1" stroke-linejoin="bevel" style=""/>
  <path d="M 167.465 994.696 L 344.124 1178.187 L 388.288 1014.333 L 167.465 994.696 Z" fill="#00bb00" stroke="#00bb00" stroke-width="1" stroke-linejoin="bevel" style=""/>
  <path d="M 1.848 561.604 L 1.848 618.766 L 138.758 636.221 L 1.848 561.604 Z" fill="#e1312b" stroke="#e1312b" stroke-width="1" stroke-linejoin="bevel" style=""/>
  <path d="M 1.848 1033.969 L 167.465 994.696 L 163.049 900.441 L 1.848 1033.969 Z" fill="#00bb00" stroke="#00bb00" stroke-width="1" stroke-linejoin="bevel" style=""/>
  <path d="M 163.049 900.441 L 167.465 994.696 L 302.167 889.532 L 163.049 900.441 Z" fill="#e1312b" stroke="#e1312b" stroke-width="1" stroke-linejoin="bevel" style=""/>
  <path d="M 1726.48 1178.187 L 1885.472 1178.187 L 1708.814 990.332 L 1726.48 1178.187 Z" fill="#b48400" stroke="#b48400" stroke-width="1" stroke-linejoin="bevel" style=""/>
  <path d="M 1916.387 968.513 L 2121.752 898.259 L 1894.304 856.805 L 1916.387 968.513 Z" fill="#b48400" stroke="#b48400" stroke-width="1" stroke-linejoin="bevel" style=""/>
  <path d="M 2121.752 1005.605 L 2121.752 898.259 L 1916.387 968.513 L 2121.752 1005.605 Z" fill="#d90064" stroke="#d90064" stroke-width="1" stroke-linejoin="bevel" style=""/>
  <path d="M 123.301 0 L 1.848 0 L 143.174 118.037 L 123.301 0 Z" fill="#6aab00" stroke="#6aab00" stroke-width="1" stroke-linejoin="bevel" style=""/>
  <path d="M 1.848 618.766 L 1.848 780.441 L 138.758 636.221 L 1.848 618.766 Z" fill="#959900" stroke="#959900" stroke-width="1" stroke-linejoin="bevel" style=""/>
  <path d="M 1885.472 1178.187 L 2121.752 1005.605 L 1916.387 968.513 L 1885.472 1178.187 Z" fill="#00bb00" stroke="#00bb00" stroke-width="1" stroke-linejoin="bevel" style=""/>
  <path d="M 1.848 1033.969 L 185.131 1178.187 L 167.465 994.696 L 1.848 1033.969 Z" fill="#6aab00" stroke="#6aab00" stroke-width="1" stroke-linejoin="bevel" style=""/>
  <path d="M 167.465 994.696 L 185.131 1178.187 L 344.124 1178.187 L 167.465 994.696 Z" fill="#6aab00" stroke="#6aab00" stroke-width="1" stroke-linejoin="bevel" style=""/>
  <path d="M 1.848 780.441 L 1.848 1033.969 L 163.049 900.441 L 1.848 780.441 Z" fill="#d90064" stroke="#d90064" stroke-width="1" stroke-linejoin="bevel" style=""/>
  <path d="M 1885.472 1178.187 L 2121.752 1178.187 L 2121.752 1005.605 L 1885.472 1178.187 Z" fill="#6aab00" stroke="#6aab00" stroke-width="1" stroke-linejoin="bevel" style=""/>
  <path d="M 1.848 1033.969 L 1.848 1178.187 L 185.131 1178.187 L 1.848 1033.969 Z" fill="#cb6c00" stroke="#cb6c00" stroke-width="1" stroke-linejoin="bevel" style=""/>
  <path d="M 1347.998 881.98 L 1498.815 955.536 L 1498.815 1103.008 L 1347.998 1176.564 L 1197.183 1103.008 L 1197.183 955.536 L 1347.998 881.98 Z" fill="none" stroke="#f00" stroke-width="5" style=""/>
  <path d="M 1005.235 273.789 L 1055.364 298.246 L 1055.364 347.161 L 1005.235 371.62 L 955.105 347.161 L 955.105 298.246 L 1005.235 273.789 Z" fill="none" stroke="#f00" stroke-width="5" style=""/>
  <path d="M 1333.002 534.675 L 1462.824 598.086 L 1462.824 724.903 L 1333.002 788.314 L 1203.179 724.903 L 1203.179 598.086 L 1333.002 534.675 Z" fill="none" stroke="#f00" stroke-width="5" style=""/>
  <path d="M 94.767 14.712 L 189.456 60.912 L 189.456 153.309 L 94.767 199.509 L 0.079 153.309 L 0.079 60.912 L 94.767 14.712 Z" stroke="#f00" fill="none" stroke-width="5" style=""/>
  <path d="M 1690.763 714.034 L 1837.296 785.597 L 1837.296 928.721 L 1690.763 1000.285 L 1544.232 928.721 L 1544.232 785.597 L 1690.763 714.034 Z" stroke="#f00" fill="none" stroke-width="5" style=""/>
  <path d="M 1830.011 355.315 L 1896.848 387.925 L 1896.848 453.148 L 1830.011 485.758 L 1763.171 453.148 L 1763.171 387.925 L 1830.011 355.315 Z" stroke="#f00" fill="none" stroke-width="5" style=""/>
  <path d="M 694.603 478.511 L 822.713 541.015 L 822.713 666.022 L 694.603 728.528 L 566.495 666.022 L 566.495 541.015 L 694.603 478.511 Z" stroke="#f00" fill="none" stroke-width="5" style=""/>
  <path d="M 1517.237 163.273 L 1613.641 210.378 L 1613.641 304.587 L 1517.237 351.69 L 1420.836 304.587 L 1420.836 210.378 L 1517.237 163.273 Z" stroke="#f00" fill="none" stroke-width="5" style=""/>
  <path d="M 835.995 839.042 L 876.911 858.971 L 876.911 898.828 L 835.995 918.757 L 795.077 898.828 L 795.077 858.971 L 835.995 839.042 Z" stroke="#f00" fill="none" stroke-width="5" style=""/>
  <path d="M 2044.238 895.204 L 2125.858 935.062 L 2125.858 1014.778 L 2044.238 1054.635 L 1962.617 1014.778 L 1962.617 935.062 L 2044.238 895.204 Z" stroke="#f00" fill="none" stroke-width="5" style=""/>
  <path d="M 266.148 369.81 L 390.402 430.501 L 390.402 551.886 L 266.148 612.579 L 141.899 551.886 L 141.899 430.501 L 266.148 369.81 Z" stroke="#f00" fill="none" stroke-width="5" style=""/>
  <path d="M 257.58 788.314 L 374.549 845.383 L 374.549 959.521 L 257.58 1016.59 L 140.614 959.521 L 140.614 845.383 L 257.58 788.314 Z" stroke="#f00" fill="none" stroke-width="5" style=""/>
  <path d="M 2016.386 9.278 L 2111.076 55.478 L 2111.076 147.873 L 2016.386 194.073 L 1921.701 147.873 L 1921.701 55.478 L 2016.386 9.278 Z" stroke="#f00" fill="none" stroke-width="5" style=""/>
  <path d="M 529.648 152.402 L 553.857 164.178 L 553.857 187.732 L 529.648 199.509 L 505.442 187.732 L 505.442 164.178 L 529.648 152.402 Z" stroke="#f00" fill="none" stroke-width="5" style=""/>
  <path d="M -1.529 664.077 L 28.069 665.862 C 57.886 667.868 117.078 671.439 176.492 715.392 C 235.909 759.346 295.101 843.235 354.516 878.933 C 413.931 914.632 473.122 902.136 532.537 869.339 C 591.954 836.542 651.146 783.887 710.561 760.684 C 769.976 737.703 829.167 744.396 888.582 767.377 C 947.999 790.582 1007.191 829.848 1066.606 819.809 C 1126.02 809.768 1185.212 750.42 1244.627 738.15 C 1304.044 725.879 1363.235 760.684 1422.65 798.391 C 1482.065 835.872 1541.257 876.032 1600.672 899.907 C 1660.089 923.556 1719.28 931.142 1778.695 896.56 C 1838.11 861.977 1897.302 785.227 1956.717 733.91 C 2016.133 682.593 2075.325 656.714 2105.142 643.55 L 2134.74 630.61 L 2134.74 1179.464 L 2105.142 1179.464 C 2075.325 1179.464 2016.133 1179.464 1956.717 1179.464 C 1897.302 1179.464 1838.11 1179.464 1778.695 1179.464 C 1719.28 1179.464 1660.089 1179.464 1600.672 1179.464 C 1541.257 1179.464 1482.065 1179.464 1422.65 1179.464 C 1363.235 1179.464 1304.044 1179.464 1244.627 1179.464 C 1185.212 1179.464 1126.02 1179.464 1066.606 1179.464 C 1007.191 1179.464 947.999 1179.464 888.582 1179.464 C 829.167 1179.464 769.976 1179.464 710.561 1179.464 C 651.146 1179.464 591.954 1179.464 532.537 1179.464 C 473.122 1179.464 413.931 1179.464 354.516 1179.464 C 295.101 1179.464 235.909 1179.464 176.492 1179.464 C 117.078 1179.464 57.886 1179.464 28.069 1179.464 L -1.529 1179.464 L -1.529 664.077 Z" fill="#99ff99" style=""/>
  <path d="M -1.529 967.508 L 28.069 928.017 C 57.886 888.751 117.078 809.768 176.492 800.62 C 235.909 791.252 295.101 851.491 354.516 855.954 C 413.931 860.415 473.122 809.098 532.537 772.732 C 591.954 736.142 651.146 714.724 710.561 744.396 C 769.976 774.072 829.167 855.284 888.582 894.997 C 947.999 934.71 1007.191 933.374 1066.606 913.517 C 1126.02 893.882 1185.212 855.954 1244.627 841.452 C 1304.044 826.948 1363.235 835.872 1422.65 835.426 C 1482.065 835.204 1541.257 825.385 1600.672 846.36 C 1660.089 867.108 1719.28 918.423 1778.695 915.747 C 1838.11 913.292 1897.302 856.622 1956.717 810.661 C 2016.133 764.477 2075.325 728.779 2105.142 710.929 L 2134.74 693.081 L 2134.74 1179.464 L 2105.142 1179.464 C 2075.325 1179.464 2016.133 1179.464 1956.717 1179.464 C 1897.302 1179.464 1838.11 1179.464 1778.695 1179.464 C 1719.28 1179.464 1660.089 1179.464 1600.672 1179.464 C 1541.257 1179.464 1482.065 1179.464 1422.65 1179.464 C 1363.235 1179.464 1304.044 1179.464 1244.627 1179.464 C 1185.212 1179.464 1126.02 1179.464 1066.606 1179.464 C 1007.191 1179.464 947.999 1179.464 888.582 1179.464 C 829.167 1179.464 769.976 1179.464 710.561 1179.464 C 651.146 1179.464 591.954 1179.464 532.537 1179.464 C 473.122 1179.464 413.931 1179.464 354.516 1179.464 C 295.101 1179.464 235.909 1179.464 176.492 1179.464 C 117.078 1179.464 57.886 1179.464 28.069 1179.464 L -1.529 1179.464 L -1.529 967.508 Z" fill="#9af888" style=""/>
  <path d="M -1.529 826.948 L 28.069 832.973 C 57.886 838.774 117.078 850.821 176.492 836.989 C 235.909 823.157 295.101 783.887 354.516 775.186 C 413.931 766.707 473.122 789.02 532.537 791.696 C 591.954 794.151 651.146 777.193 710.561 793.035 C 769.976 809.098 829.167 858.182 888.582 863.315 C 947.999 868.669 1007.191 829.848 1066.606 828.733 C 1126.02 827.618 1185.212 864.208 1244.627 870.009 C 1304.044 876.032 1363.235 851.491 1422.65 844.797 C 1482.065 838.104 1541.257 849.26 1600.672 841.003 C 1660.089 832.973 1719.28 805.307 1778.695 791.918 C 1838.11 778.533 1897.302 779.426 1956.717 782.326 C 2016.133 785.227 2075.325 790.582 2105.142 793.035 L 2134.74 795.713 L 2134.74 1179.464 L 2105.142 1179.464 C 2075.325 1179.464 2016.133 1179.464 1956.717 1179.464 C 1897.302 1179.464 1838.11 1179.464 1778.695 1179.464 C 1719.28 1179.464 1660.089 1179.464 1600.672 1179.464 C 1541.257 1179.464 1482.065 1179.464 1422.65 1179.464 C 1363.235 1179.464 1304.044 1179.464 1244.627 1179.464 C 1185.212 1179.464 1126.02 1179.464 1066.606 1179.464 C 1007.191 1179.464 947.999 1179.464 888.582 1179.464 C 829.167 1179.464 769.976 1179.464 710.561 1179.464 C 651.146 1179.464 591.954 1179.464 532.537 1179.464 C 473.122 1179.464 413.931 1179.464 354.516 1179.464 C 295.101 1179.464 235.909 1179.464 176.492 1179.464 C 117.078 1179.464 57.886 1179.464 28.069 1179.464 L -1.529 1179.464 L -1.529 826.948 Z" fill="#9cf277" style=""/>
  <path d="M -1.529 992.051 L 28.069 987.59 C 57.886 983.125 117.078 974.203 176.492 969.293 C 235.909 964.609 295.101 963.716 354.516 972.64 C 413.931 981.566 473.122 1000.305 532.537 989.82 C 591.954 979.334 651.146 940.066 710.561 906.153 C 769.976 872.241 829.167 844.128 888.582 841.895 C 947.999 839.667 1007.191 863.315 1066.606 897.675 C 1126.02 931.812 1185.212 976.433 1244.627 964.832 C 1304.044 953.453 1363.235 885.626 1422.65 857.069 C 1482.065 828.51 1541.257 838.774 1600.672 861.977 C 1660.089 884.956 1719.28 920.656 1778.695 917.753 C 1838.11 914.632 1897.302 873.134 1956.717 866.44 C 2016.133 859.745 2075.325 887.858 2105.142 902.136 L 2134.74 916.194 L 2134.74 1179.464 L 2105.142 1179.464 C 2075.325 1179.464 2016.133 1179.464 1956.717 1179.464 C 1897.302 1179.464 1838.11 1179.464 1778.695 1179.464 C 1719.28 1179.464 1660.089 1179.464 1600.672 1179.464 C 1541.257 1179.464 1482.065 1179.464 1422.65 1179.464 C 1363.235 1179.464 1304.044 1179.464 1244.627 1179.464 C 1185.212 1179.464 1126.02 1179.464 1066.606 1179.464 C 1007.191 1179.464 947.999 1179.464 888.582 1179.464 C 829.167 1179.464 769.976 1179.464 710.561 1179.464 C 651.146 1179.464 591.954 1179.464 532.537 1179.464 C 473.122 1179.464 413.931 1179.464 354.516 1179.464 C 295.101 1179.464 235.909 1179.464 176.492 1179.464 C 117.078 1179.464 57.886 1179.464 28.069 1179.464 L -1.529 1179.464 L -1.529 992.051 Z" fill="#9eeb66" style=""/>
  <path d="M -1.529 994.281 L 28.069 984.687 C 57.886 974.873 117.078 955.685 176.492 936.273 C 235.909 916.861 295.101 897.675 354.516 916.638 C 413.931 935.603 473.122 992.721 532.537 1008.783 C 591.954 1024.85 651.146 999.412 710.561 982.459 C 769.976 965.279 829.167 956.353 888.582 965.945 C 947.999 975.763 1007.191 1003.877 1066.606 1013.916 C 1126.02 1023.957 1185.212 1015.926 1244.627 988.705 C 1304.044 961.484 1363.235 915.525 1422.65 893.435 C 1482.065 871.571 1541.257 873.802 1600.672 880.495 C 1660.089 887.188 1719.28 898.345 1778.695 915.077 C 1838.11 931.812 1897.302 954.123 1956.717 954.792 C 2016.133 955.685 2075.325 934.71 2105.142 924.447 L 2134.74 913.962 L 2134.74 1179.464 L 2105.142 1179.464 C 2075.325 1179.464 2016.133 1179.464 1956.717 1179.464 C 1897.302 1179.464 1838.11 1179.464 1778.695 1179.464 C 1719.28 1179.464 1660.089 1179.464 1600.672 1179.464 C 1541.257 1179.464 1482.065 1179.464 1422.65 1179.464 C 1363.235 1179.464 1304.044 1179.464 1244.627 1179.464 C 1185.212 1179.464 1126.02 1179.464 1066.606 1179.464 C 1007.191 1179.464 947.999 1179.464 888.582 1179.464 C 829.167 1179.464 769.976 1179.464 710.561 1179.464 C 651.146 1179.464 591.954 1179.464 532.537 1179.464 C 473.122 1179.464 413.931 1179.464 354.516 1179.464 C 295.101 1179.464 235.909 1179.464 176.492 1179.464 C 117.078 1179.464 57.886 1179.464 28.069 1179.464 L -1.529 1179.464 L -1.529 994.281 Z" fill="#a0e354" style=""/>
  <path d="M -1.529 1079.065 L 28.069 1063.893 C 57.886 1048.498 117.078 1018.154 176.492 1004.322 C 235.909 990.49 295.101 993.613 354.516 985.357 C 413.931 977.101 473.122 957.916 532.537 952.337 C 591.954 946.759 651.146 954.792 710.561 970.41 C 769.976 986.027 829.167 1009.231 888.582 1028.195 C 947.999 1047.16 1007.191 1061.885 1066.606 1054.969 C 1126.02 1047.83 1185.212 1018.824 1244.627 1002.76 C 1304.044 986.92 1363.235 983.795 1422.65 984.91 C 1482.065 986.027 1541.257 991.383 1600.672 1002.09 C 1660.089 1012.801 1719.28 1029.311 1778.695 1026.186 C 1838.11 1023.287 1897.302 1000.975 1956.717 988.258 C 2016.133 975.763 2075.325 972.64 2105.142 971.302 L 2134.74 969.74 L 2134.74 1179.464 L 2105.142 1179.464 C 2075.325 1179.464 2016.133 1179.464 1956.717 1179.464 C 1897.302 1179.464 1838.11 1179.464 1778.695 1179.464 C 1719.28 1179.464 1660.089 1179.464 1600.672 1179.464 C 1541.257 1179.464 1482.065 1179.464 1422.65 1179.464 C 1363.235 1179.464 1304.044 1179.464 1244.627 1179.464 C 1185.212 1179.464 1126.02 1179.464 1066.606 1179.464 C 1007.191 1179.464 947.999 1179.464 888.582 1179.464 C 829.167 1179.464 769.976 1179.464 710.561 1179.464 C 651.146 1179.464 591.954 1179.464 532.537 1179.464 C 473.122 1179.464 413.931 1179.464 354.516 1179.464 C 295.101 1179.464 235.909 1179.464 176.492 1179.464 C 117.078 1179.464 57.886 1179.464 28.069 1179.464 L -1.529 1179.464 L -1.529 1079.065 Z" fill="#a3dc40" style=""/>
  <path d="M -1.529 1085.758 L 28.069 1083.526 C 57.886 1081.296 117.078 1076.833 176.492 1061.663 C 235.909 1046.268 295.101 1020.387 354.516 1016.148 C 413.931 1012.131 473.122 1029.981 532.537 1036.227 C 591.954 1042.698 651.146 1037.342 710.561 1036.674 C 769.976 1036.004 829.167 1039.574 888.582 1038.459 C 947.999 1037.342 1007.191 1031.543 1066.606 1040.467 C 1126.02 1049.389 1185.212 1073.041 1244.627 1084.641 C 1304.044 1096.245 1363.235 1095.352 1422.65 1090.221 C 1482.065 1085.089 1541.257 1075.27 1600.672 1064.116 C 1660.089 1052.961 1719.28 1040.467 1778.695 1042.92 C 1838.11 1045.598 1897.302 1063.448 1956.717 1062.331 C 2016.133 1061.215 2075.325 1041.137 2105.142 1031.096 L 2134.74 1021.055 L 2134.74 1179.464 L 2105.142 1179.464 C 2075.325 1179.464 2016.133 1179.464 1956.717 1179.464 C 1897.302 1179.464 1838.11 1179.464 1778.695 1179.464 C 1719.28 1179.464 1660.089 1179.464 1600.672 1179.464 C 1541.257 1179.464 1482.065 1179.464 1422.65 1179.464 C 1363.235 1179.464 1304.044 1179.464 1244.627 1179.464 C 1185.212 1179.464 1126.02 1179.464 1066.606 1179.464 C 1007.191 1179.464 947.999 1179.464 888.582 1179.464 C 829.167 1179.464 769.976 1179.464 710.561 1179.464 C 651.146 1179.464 591.954 1179.464 532.537 1179.464 C 473.122 1179.464 413.931 1179.464 354.516 1179.464 C 295.101 1179.464 235.909 1179.464 176.492 1179.464 C 117.078 1179.464 57.886 1179.464 28.069 1179.464 L -1.529 1179.464 L -1.529 1085.758 Z" fill="#a7d429" style=""/>
  <path d="M -1.529 1085.758 L 28.069 1089.551 C 57.886 1093.12 117.078 1100.706 176.492 1100.706 C 235.909 1100.706 295.101 1093.12 354.516 1084.196 C 413.931 1075.27 473.122 1065.01 532.537 1065.678 C 591.954 1066.348 651.146 1078.395 710.561 1079.065 C 769.976 1079.735 829.167 1069.471 888.582 1072.372 C 947.999 1075.27 1007.191 1091.784 1066.606 1101.376 C 1126.02 1110.97 1185.212 1114.095 1244.627 1106.954 C 1304.044 1099.815 1363.235 1082.856 1422.65 1072.819 C 1482.065 1062.778 1541.257 1059.653 1600.672 1060.77 C 1660.089 1061.885 1719.28 1067.239 1778.695 1072.372 C 1838.11 1077.503 1897.302 1082.856 1956.717 1080.627 C 2016.133 1078.395 2075.325 1068.579 2105.142 1063.893 L 2134.74 1058.987 L 2134.74 1179.464 L 2105.142 1179.464 C 2075.325 1179.464 2016.133 1179.464 1956.717 1179.464 C 1897.302 1179.464 1838.11 1179.464 1778.695 1179.464 C 1719.28 1179.464 1660.089 1179.464 1600.672 1179.464 C 1541.257 1179.464 1482.065 1179.464 1422.65 1179.464 C 1363.235 1179.464 1304.044 1179.464 1244.627 1179.464 C 1185.212 1179.464 1126.02 1179.464 1066.606 1179.464 C 1007.191 1179.464 947.999 1179.464 888.582 1179.464 C 829.167 1179.464 769.976 1179.464 710.561 1179.464 C 651.146 1179.464 591.954 1179.464 532.537 1179.464 C 473.122 1179.464 413.931 1179.464 354.516 1179.464 C 295.101 1179.464 235.909 1179.464 176.492 1179.464 C 117.078 1179.464 57.886 1179.464 28.069 1179.464 L -1.529 1179.464 L -1.529 1085.758 Z" fill="#aacc00" style=""/>
</svg>